<?xml version="1.0" encoding="UTF-8"?>
<svg version="1.1" xmlns="http://www.w3.org/2000/svg" width="500" height="500">
<path d="M0 0 C16.86526152 14.47269312 23.0431306 33.74559039 29.79980469 54.13208008 C30.4373309 56.04086725 31.07537164 57.94948264 31.71388245 59.85794067 C33.43194883 64.99828175 35.14254675 70.1410785 36.85148525 75.28446031 C38.64713522 80.68534577 40.44893162 86.08418063 42.24981689 91.48332214 C45.26987065 100.54078931 48.28509122 109.59985422 51.29736328 118.65991211 C54.77545713 129.12084397 58.26103275 139.57925971 61.75064063 150.03635579 C65.11650049 160.12314528 68.47725907 170.2116272 71.83563995 180.30090904 C73.26139409 184.58391587 74.68888631 188.86633746 76.11779022 193.14829445 C77.79967511 198.18916578 79.47706616 203.23151084 81.15104485 208.27501297 C81.76464687 210.12136683 82.37976274 211.96721841 82.99653053 213.81251717 C83.84047149 216.33835051 84.67880966 218.86597832 85.51580811 221.39411926 C85.88029796 222.47857377 85.88029796 222.47857377 86.25215125 223.58493644 C90.65340294 236.95254628 91.64838637 247.43938673 86.18359375 260.78515625 C80.94278843 270.78021998 73.29581578 276.6394707 62.68359375 280.22265625 C46.69249214 284.5415568 29.57331548 280.06914065 15.3515625 272.22265625 C-6.7852775 258.8476704 -15.72814515 238.96351486 -23.54296875 215.46484375 C-24.22339399 213.44051076 -24.90454539 211.41642175 -25.58633423 209.39254761 C-27.34183769 204.17346907 -29.08820415 198.9513878 -30.83134854 193.7281698 C-32.46339152 188.83910698 -34.10046038 183.95174324 -35.73962402 179.06506348 C-41.83306567 160.8984255 -47.91166742 142.72689447 -53.97396469 124.54983902 C-54.5503479 122.82163628 -55.12673468 121.09343474 -55.703125 119.36523438 C-55.98927366 118.50725809 -56.27542233 117.6492818 -56.57024217 116.76530623 C-58.9252491 109.70535491 -61.28480654 102.64692989 -63.64516771 95.58876717 C-65.95271707 88.68773438 -68.25680665 81.7855526 -70.55827391 74.88248909 C-71.91968071 70.79930918 -73.28249768 66.71661396 -74.64899826 62.63513565 C-75.92210113 58.83232348 -77.190887 55.028098 -78.45641136 51.22275734 C-78.91842556 49.8359475 -79.38195976 48.4496429 -79.84718132 47.06390572 C-84.48217703 33.25205546 -89.05372123 19.52464718 -82.78125 5.46484375 C-77.20351146 -5.11671812 -69.82838037 -11.9351237 -58.390625 -16.09765625 C-37.92536398 -21.25940947 -15.90691865 -12.50932438 0 0 Z " fill="#5472FE" transform="translate(213.81640625,134.21484375)"/>
<path d="M0 0 C21.32656621 14.80283773 28.77883282 35.85565631 36.61035156 59.47460938 C37.25932277 61.4207308 37.9086867 63.3667213 38.55841064 65.31259155 C40.31014585 70.56269379 42.05631192 75.81463259 43.80135822 81.06696129 C45.63157719 86.57272075 47.46669861 92.07684588 49.3012085 97.58117676 C52.37732414 106.81320711 55.45006478 116.04635499 58.52050781 125.28027344 C62.46300174 137.13670088 66.41109178 148.99125697 70.36093521 160.84523773 C73.75917467 171.04393292 77.15485803 181.24347883 80.55012798 191.44316292 C81.6412238 194.72054864 82.73267134 197.99781707 83.82416534 201.27507019 C85.53620903 206.41609079 87.24665921 211.55763892 88.95586395 216.69960403 C89.58382873 218.58802313 90.21229989 220.47627392 90.84130859 222.36434555 C91.69818933 224.93673206 92.55322689 227.50972385 93.40777588 230.08288574 C93.65825503 230.8334567 93.90873417 231.58402766 94.1668036 232.3573432 C97.75353376 243.17774543 98.77889472 253.75802029 94.2578125 264.5390625 C88.71939294 275.37510077 80.4733728 282.20950739 69 286 C68.01 286.33 67.02 286.66 66 287 C45.58671227 288.41020447 26.97056533 283.48638822 11.1640625 269.9453125 C10.44992188 269.30335938 9.73578125 268.66140625 9 268 C8.38898438 267.48179687 7.77796875 266.96359375 7.1484375 266.4296875 C-0.74904086 259.25344004 -6.0632517 249.8454502 -9.7297821 239.94770813 C-9.98998978 239.24871094 -10.25019746 238.54971375 -10.51829022 237.82953483 C-13.73832923 229.10118924 -16.68258937 220.28028359 -19.63208008 211.45776367 C-20.27151594 209.55202217 -20.91117084 207.64635414 -21.55102539 205.74075317 C-23.62806306 199.55122914 -25.6989677 193.35966092 -27.76953125 187.16796875 C-28.48703528 185.02356551 -29.2045769 182.87917485 -29.92215538 180.73479652 C-33.2895352 170.67062504 -36.65407651 160.60551023 -40.01509172 150.53921145 C-43.8826156 138.95623684 -47.76008732 127.37665405 -51.64589578 115.79980105 C-54.65997739 106.81790808 -57.66482257 97.83295809 -60.66279143 88.84567434 C-62.44929505 83.4908539 -64.23970417 78.13741702 -66.03992653 72.78719139 C-67.73069154 67.76152984 -69.40993533 62.73216332 -71.08055878 57.69977188 C-71.69354687 55.85981904 -72.31060666 54.02121664 -72.93214226 52.18413353 C-78.12766584 36.81485606 -81.46718164 24.1931525 -74.3125 8.8125 C-69.26434011 -0.6649348 -62.7232494 -5.56274376 -53 -10 C-35.18577954 -15.27845799 -15.28410195 -9.29897372 0 0 Z " fill="#5472FE" transform="translate(84,138)"/>
<path d="M0 0 C0.9714093 0.00276947 1.9428186 0.00553894 2.94366455 0.00839233 C25.20633899 0.08012198 47.46911857 0.50239494 69.72702026 0.94372559 C73.77749827 1.02397719 77.82801875 1.09844421 81.87869263 1.16809082 C86.73038831 1.25236021 91.58158623 1.35123163 96.4327755 1.46075249 C98.24164049 1.4994588 100.0506125 1.5334907 101.85965919 1.56248665 C115.97672474 1.79444596 128.54121017 2.59285456 138.94921875 13.32421875 C145.58780869 21.2988771 147.56116872 28.72640866 147.28515625 39.046875 C146.75142043 43.96444101 145.21911644 47.89289446 142.9375 52.25 C142.51339844 53.07113281 142.08929688 53.89226562 141.65234375 54.73828125 C137.93864252 61.38984084 133.18151045 66.76467225 127.9375 72.25 C127.10798828 73.19166016 127.10798828 73.19166016 126.26171875 74.15234375 C117.97140608 83.22437325 105.51148235 89.46893949 93.9375 93.25 C93.11854248 93.52142822 92.29958496 93.79285645 91.45581055 94.07250977 C80.0885808 97.26144237 68.45376517 96.6584433 56.75 96.5625 C54.31111719 96.55168973 51.8722337 96.54103355 49.43334961 96.53051758 C27.20909028 96.39843589 4.98625894 95.97394835 -17.23285294 95.4955101 C-19.99228668 95.4376617 -22.75177585 95.38436846 -25.51132202 95.33218384 C-29.90081225 95.24810231 -34.28974019 95.14921131 -38.67865753 95.03931046 C-40.30390303 95.00065065 -41.92926518 94.96657149 -43.55471039 94.93749619 C-56.93106695 94.69193482 -68.95803452 93.48081572 -78.81640625 83.46875 C-84.78282637 76.17147427 -87.8563385 67.42297753 -87.44140625 58 C-85.53375733 44.15479547 -76.57826381 32.92732177 -67.0625 23.25 C-66.37542969 22.55003906 -65.68835938 21.85007813 -64.98046875 21.12890625 C-54.82074491 11.45926185 -42.47016763 5.83835918 -29.0625 2.25 C-28.40000244 2.06308594 -27.73750488 1.87617187 -27.05493164 1.68359375 C-18.19413772 -0.48146106 -9.05668883 -0.05029036 0 0 Z " fill="#5472FE" transform="translate(348.0625,117.75)"/>
<path d="M0 0 C7.59985188 4.51372418 11.49945468 9.5877635 14.4118042 17.8901062 C16.22972144 25.58385548 15.81117221 33.54634268 15.7890625 41.41015625 C15.79898696 43.34347131 15.81093479 45.27677693 15.82479858 47.21006775 C15.85700641 52.27454685 15.86753847 57.33880994 15.87164307 62.40338135 C15.88043193 70.51070627 15.91615453 78.61785513 15.9638176 86.72503471 C15.97630665 89.53998961 15.97565338 92.35471628 15.97354126 95.16969299 C15.55917621 107.54799547 15.55917621 107.54799547 18.25 119.4375 C20.97875002 121.67295319 20.97875002 121.67295319 23.625 121.375 C27.34611714 120.04602959 28.8009794 118.57727 31.25 115.4375 C35.13317616 106.78801731 36.43684864 98.72164569 36.6796875 89.3203125 C36.94257162 83.51495484 38.51212982 80.38602111 42.3125 76.125 C46.45640884 73.74445662 50.59160639 73.26562286 55.25 74.4375 C58.03125 76.453125 58.03125 76.453125 60.25 79.4375 C60.71117869 82.43819557 60.87119057 84.77208378 60.75 87.75 C60.73155029 88.54035645 60.71310059 89.33071289 60.6940918 90.14501953 C60.00841698 109.06057768 54.89483644 125.28038909 41.0625 138.6875 C33.11304693 145.47229726 23.2136238 149.04425229 12.7890625 148.25 C5.34702615 147.15086848 -0.56060663 144.07953653 -5.5390625 138.39453125 C-13.15014864 127.80274881 -13.20253694 116.40515278 -13.2265625 103.85546875 C-13.24090739 102.15211275 -13.25667052 100.44876817 -13.27377319 98.74543762 C-13.31541589 94.28057129 -13.34053688 89.81577568 -13.36126709 85.35076904 C-13.3972051 78.21763289 -13.45875691 71.08467285 -13.51975632 63.95171547 C-13.53856541 61.48320652 -13.55049642 59.01474414 -13.56118774 56.54618835 C-12.65209266 40.86137526 -12.65209266 40.86137526 -16.75 26.4375 C-19.96829725 24.82835137 -23.25955106 24.97428154 -26.75 25.4375 C-32.21065053 28.22136105 -36.31917344 32.29079295 -38.87367249 37.90870667 C-40.12818326 42.96036737 -40.0333933 47.83663991 -40.02124023 53.02319336 C-40.02908035 54.76328423 -40.02908035 54.76328423 -40.03707886 56.53852844 C-40.04730579 59.05281664 -40.05309698 61.56712594 -40.05496025 64.08143425 C-40.05862557 68.06189926 -40.07500324 72.04219626 -40.09571838 76.02259827 C-40.14480072 85.9080634 -40.17577405 95.79357508 -40.19702148 105.67913818 C-40.21356664 113.36582411 -40.23643617 121.05236143 -40.28004223 128.73894793 C-40.2982047 132.04511947 -40.30861807 135.3510425 -40.30874443 138.65727043 C-40.30893655 142.34583915 -40.32720828 146.03391929 -40.34936523 149.72241211 C-40.34249947 151.35365524 -40.34249947 151.35365524 -40.335495 153.01785278 C-40.40602568 160.40623647 -41.33645793 165.24310609 -45.875 171.25 C-50.78386224 174.98500388 -55.44114862 175.74534685 -61.5 174.9375 C-65.54663337 173.06982306 -67.31860739 171.15610046 -69.75 167.4375 C-70.64183362 163.39875366 -70.87848156 159.53056102 -70.89044189 155.40344238 C-70.89615204 154.21746964 -70.90186218 153.03149689 -70.90774536 151.80958557 C-70.90886322 150.52212936 -70.90998108 149.23467316 -70.91113281 147.90820312 C-70.91576604 146.52790699 -70.92079138 145.14761213 -70.92617798 143.76731873 C-70.93925035 140.02978751 -70.94573613 136.29227422 -70.95018864 132.55472374 C-70.95312609 130.21788164 -70.95723203 127.88104437 -70.96169281 125.54420471 C-70.97535053 118.2271545 -70.98502714 110.91011541 -70.9888947 103.59305334 C-70.99337947 95.1559475 -71.01095395 86.71900334 -71.0398953 78.28194666 C-71.06151601 71.75184629 -71.07159909 65.22179142 -71.07293582 58.69165564 C-71.07398303 54.79474501 -71.07987366 50.89798674 -71.09775543 47.00111389 C-71.11424425 43.33699141 -71.11638785 39.67313572 -71.10761642 36.00898933 C-71.10648028 34.02777796 -71.12018902 32.04657539 -71.1343689 30.06541443 C-71.12879974 28.87944168 -71.12323059 27.69346893 -71.11749268 26.47155762 C-71.11895924 25.4450988 -71.1204258 24.41863998 -71.1219368 23.36107635 C-70.67405878 19.84057073 -69.57363791 17.46942806 -67.75 14.4375 C-62.41182045 10.32265326 -58.484912 8.97302331 -51.75 9.4375 C-48.8125 10.9375 -48.8125 10.9375 -46.75 12.4375 C-46.38390625 11.92960938 -46.0178125 11.42171875 -45.640625 10.8984375 C-35.24373969 -2.32045954 -15.37631558 -7.27232032 0 0 Z " fill="#5472FE" transform="translate(423.75,231.5625)"/>
<path d="M0 0 C4.57967853 2.12022154 6.51746942 4.27289899 8.39102173 8.93157959 C9.53396391 12.81363095 9.48298445 16.70518229 9.51171875 20.7265625 C9.52985123 21.70716141 9.5479837 22.68776031 9.56666565 23.69807434 C9.62258334 27.00701905 9.65592426 30.31573882 9.6875 33.625 C9.71868184 35.98706578 9.75026983 38.34912622 9.78222656 40.71118164 C9.87587254 48.32608321 9.93235109 55.9409881 9.98311615 63.55626678 C10.00084863 66.12282963 10.02040607 68.68937379 10.04034424 71.25592041 C10.12851817 82.72425768 10.1921 94.19245383 10.22915649 105.66107178 C10.2417524 109.50784467 10.26049568 113.35451331 10.28427124 117.20123291 C10.31176766 121.79083448 10.32373721 126.38023402 10.32426262 130.96991539 C10.32680778 132.67575317 10.3344523 134.3815921 10.3475666 136.08738136 C10.36469279 138.44576928 10.3628365 140.80343959 10.35644531 143.16186523 C10.36566356 143.84162226 10.3748818 144.52137928 10.38437939 145.221735 C10.33748325 150.66319599 9.35007675 156.45776438 5.54802322 160.57070065 C1.29653122 164.17880541 -1.37619943 165.31213925 -6.97265625 165.2109375 C-10.01038974 164.89487274 -11.66300734 163.94749388 -14 162 C-19.31763954 155.20523836 -19.1556493 149.13028862 -19.20532227 140.85498047 C-19.21522186 139.83448105 -19.22512146 138.81398163 -19.23532104 137.76255798 C-19.2669453 134.38079137 -19.29173746 130.99901145 -19.31640625 127.6171875 C-19.33701478 125.24520539 -19.35801216 122.87322662 -19.37937927 120.50125122 C-19.42336041 115.51289771 -19.46425572 110.52453214 -19.50268555 105.53613281 C-19.55133662 99.22204757 -19.60496141 92.90801886 -19.66066074 86.59399223 C-19.71426253 80.4975714 -19.76549059 74.40113128 -19.81640625 68.3046875 C-19.82596407 67.17726009 -19.83552189 66.04983269 -19.84536934 64.88824081 C-19.89067088 59.45054577 -19.92976609 54.01295443 -19.95632935 48.57513428 C-19.98008553 43.94043011 -20.04070132 39.30753059 -20.1166687 34.67340088 C-20.14441243 32.25508978 -20.17185602 29.83677522 -20.19897461 27.41845703 C-20.22342179 26.30761183 -20.24786898 25.19676662 -20.27305698 24.05225945 C-20.3289435 17.28667788 -20.32147138 9.70302715 -15.5474081 4.38054085 C-10.4550046 0.01366361 -6.53224203 -0.76979283 0 0 Z " fill="#5472FE" transform="translate(340,253)"/>
<path d="M0 0 C3.0625 0.125 3.0625 0.125 5.0625 1.125 C5.7225 0.795 6.3825 0.465 7.0625 0.125 C11.60469954 -0.51090794 15.7512832 -0.62783792 19.625 2.0625 C22.3380645 5.47122206 22.51261957 7.23008146 22.39379883 11.49682617 C21.76173896 16.51091934 19.90808714 21.10941716 18.125 25.8125 C14.8613864 34.2731353 14.8613864 34.2731353 13.0625 43.125 C14.3825 43.125 15.7025 43.125 17.0625 43.125 C17.124375 42.073125 17.18625 41.02125 17.25 39.9375 C18.18361126 32.67607909 20.46562511 23.73784458 26.25 18.875 C30.57833441 16.18181414 32.89535289 15.78052353 38.0625 16.125 C42.04316095 17.70224302 43.66917274 18.53500911 46.0625 22.125 C47.0137675 28.38854058 45.55193316 33.420049 43.0625 39.125 C47.17281907 36.0089174 48.08462447 30.73273829 49.54882812 26.01757812 C51.2843285 20.94276809 53.09016418 18.64353989 58.0625 16.125 C62.22678713 15.63508387 63.52819344 15.76879563 67.0625 18.125 C67.38863281 17.31675781 67.71476562 16.50851563 68.05078125 15.67578125 C68.48777344 14.60714844 68.92476563 13.53851563 69.375 12.4375 C69.80425781 11.38175781 70.23351562 10.32601562 70.67578125 9.23828125 C73.66883484 2.51866516 73.66883484 2.51866516 76.0625 0.125 C78.5625 0 78.5625 0 81.0625 0.125 C81.5575 0.62 81.5575 0.62 82.0625 1.125 C81.74632076 9.08876463 78.73758062 16.33071562 76.0625 23.75 C75.36258957 25.70182204 74.66518773 27.65442347 73.97363281 29.60922241 C73.34748898 31.37773769 72.71304964 33.14330955 72.078125 34.90869141 C71.10670528 37.98500954 70.50621248 40.93400797 70.0625 44.125 C72.08684756 43.44724502 72.08684756 43.44724502 74.0625 42.125 C74.83808134 40.05547772 74.83808134 40.05547772 75.0625 37.625 C76.20998735 30.78953654 77.69696121 23.72276219 83.1875 19.0625 C87.50746987 16.15121596 89.79125698 15.68572975 95.0625 16.125 C98.76640021 18.15166238 100.71613011 19.60544516 103.0625 23.125 C103.60140114 26.62785743 103.74673961 29.03280681 101.82421875 32.1015625 C99.33447568 35.10408144 97.82689614 36.87020129 94.0625 38.125 C92.50131572 38.19240865 90.9374748 38.21014456 89.375 38.1875 C88.16263672 38.17396484 88.16263672 38.17396484 86.92578125 38.16015625 C86.31089844 38.14855469 85.69601562 38.13695312 85.0625 38.125 C86.0525 40.6 86.0525 40.6 87.0625 43.125 C93.14030319 43.54415884 96.26853524 43.27976946 101.0625 39.125 C101.94322448 37.89356787 102.79710525 36.64255314 103.625 35.375 C104.828125 33.54296875 104.828125 33.54296875 106.0625 32.125 C108.875 31.6875 108.875 31.6875 111.0625 32.125 C111.92133109 34.52012522 112.23766838 35.6866433 111.27734375 38.08984375 C107.27846177 44.26548718 103.2612657 48.75684709 96.0625 51.125 C89.58633051 51.71770461 84.20069145 51.22096781 78.0625 49.125 C76.37300386 49.73148579 74.70613134 50.40340576 73.0625 51.125 C66.88177711 51.55873494 66.88177711 51.55873494 63.9375 50 C63.31875 49.71125 62.7 49.4225 62.0625 49.125 C60.37812256 49.74556011 58.71241582 50.41789322 57.0625 51.125 C54.0625 51.5 54.0625 51.5 51.0625 51.125 C50.258125 50.465 49.45375 49.805 48.625 49.125 C46.12063344 46.81549095 46.12063344 46.81549095 42.4375 46.6875 C38.87460316 47.149357 38.20622154 47.44534808 36.0625 50.125 C30.43961708 51.99929431 24.78620266 51.30340937 19.0625 50.125 C18.0725 50.455 17.0825 50.785 16.0625 51.125 C11.86262182 51.51387761 9.76642762 51.58408323 6.1875 49.25 C3.42587327 46.48837327 3.1117869 45.6677798 2.75390625 41.7265625 C2.82824456 35.94904093 4.98946652 30.84767537 7 25.5 C10.2609557 17.00669642 10.2609557 17.00669642 12.0625 8.125 C7.09953211 9.00977362 7.09953211 9.00977362 3.5078125 12.23193359 C1.80359394 15.64324946 0.49451022 19.13002713 -0.75 22.7265625 C-1.27328176 24.20057613 -1.79672404 25.67453278 -2.3203125 27.1484375 C-3.13283857 29.45601153 -3.94256835 31.76451586 -4.74902344 34.07421875 C-5.53372958 36.31514926 -6.32878259 38.55220101 -7.125 40.7890625 C-7.36259033 41.47972809 -7.60018066 42.17039368 -7.8449707 42.88198853 C-10.09013262 49.16229696 -10.09013262 49.16229696 -12.9375 51.125 C-17.35855263 50.70394737 -17.35855263 50.70394737 -18.9375 49.125 C-18.53511327 42.51806958 -17.10406231 36.93003 -14.8125 30.75 C-14.50554199 29.89946045 -14.19858398 29.0489209 -13.88232422 28.17260742 C-13.23802762 26.39284861 -12.58904041 24.61478138 -11.93554688 22.83837891 C-10.93127323 20.10807134 -9.94101935 17.37299048 -8.953125 14.63671875 C-8.32371319 12.90335639 -7.69353276 11.1702729 -7.0625 9.4375 C-6.76456543 8.61781738 -6.46663086 7.79813477 -6.15966797 6.95361328 C-3.65464594 0.15551685 -3.65464594 0.15551685 0 0 Z " fill="#F9FAFE" transform="translate(333.9375,137.875)"/>
<path d="M0 0 C3.40654184 2.14760246 5.77828524 4.11272577 7 8 C7.480151 12.32135899 7.29173086 14.4668367 5.1875 18.3125 C2.9074753 21.11367321 1.34717449 22.80363219 -2.3046875 23.3359375 C-6.57276853 23.40080195 -9.24596584 23.43985326 -13 21.25 C-16.47074276 17.3454144 -17.56806174 14.49158788 -17.45703125 9.1015625 C-16.61306175 5.22074549 -13.98336598 2.50428531 -11 0 C-7.14670271 -1.28443243 -3.87578783 -0.98408675 0 0 Z " fill="#5472FE" transform="translate(339,226)"/>
<path d="M0 0 C1.1446875 0.3403125 1.1446875 0.3403125 2.3125 0.6875 C2.125 4 2.125 4 1.3125 7.6875 C-0.32892963 8.7284066 -1.99462215 9.73254326 -3.6875 10.6875 C-4.10429297 13.14519153 -4.10429297 13.14519153 -3.6875 15.6875 C-3.6875 17.0075 -3.6875 18.3275 -3.6875 19.6875 C-4.6875 20.6875 -4.6875 20.6875 -7.25 20.75 C-8.054375 20.729375 -8.85875 20.70875 -9.6875 20.6875 C-9.378125 19.800625 -9.06875 18.91375 -8.75 18 C-7.46219708 13.985085 -6.74640081 10.25687453 -6.3125 6.0625 C-5.6875 2.6875 -5.6875 2.6875 -4.4375 0.6875 C-2.6875 -0.3125 -2.6875 -0.3125 0 0 Z " fill="#607CFE" transform="translate(369.6875,161.3125)"/>
<path d="M0 0 C1.32 0.33 2.64 0.66 4 1 C3.51643524 6.68188598 2.2384422 12.2091617 -1 17 C-3.13671875 17.7578125 -3.13671875 17.7578125 -5 18 C-4.690625 17.195625 -4.38125 16.39125 -4.0625 15.5625 C-2.99479864 11.98256016 -2.59979081 8.75697198 -2.34375 5.05078125 C-2 3 -2 3 0 0 Z " fill="#5E7BFE" transform="translate(394,162)"/>
<path d="M0 0 C2.125 0.375 2.125 0.375 4 1 C3.67 2.98 3.34 4.96 3 7 C1.02 7 -0.96 7 -3 7 C-2.25 2.25 -2.25 2.25 0 0 Z " fill="#637FFE" transform="translate(424,161)"/>
<path d="M0 0 C1.76462683 3.08809695 2 4.23312136 2 8 C1 9 1 9 -1.5625 9.0625 C-2.366875 9.041875 -3.17125 9.02125 -4 9 C-2.94124926 5.59687262 -1.99097846 2.98646769 0 0 Z " fill="#718AFE" transform="translate(364,173)"/>
<path d="M0 0 C0.6875 1.625 0.6875 1.625 1 4 C-0.4375 7.25 -0.4375 7.25 -2 10 C-2.66 10 -3.32 10 -4 10 C-3.43454163 6.04179141 -2.19097652 3.3340947 0 0 Z " fill="#627EFE" transform="translate(381,167)"/>
</svg>
